<?xml version="1.0" encoding="UTF-8" standalone="no"?>
<!DOCTYPE svg PUBLIC "-//W3C//DTD SVG 1.1//EN" "http://www.w3.org/Graphics/SVG/1.1/DTD/svg11.dtd">
<svg width="100%" height="100%" viewBox="0 0 32 32" version="1.1" xmlns="http://www.w3.org/2000/svg" xmlns:xlink="http://www.w3.org/1999/xlink" xml:space="preserve" xmlns:serif="http://www.serif.com/" style="fill-rule:evenodd;clip-rule:evenodd;stroke-linejoin:round;stroke-miterlimit:2;">
    <path d="M28,2L2,2L2,28L3,28L3,30L3,29L4,29L4,30L28,30L28,29L29,29L29,28L30,28L30,30L30,4L29,4L29,3L28,3L28,2ZM4,2L2,2L2,4L3,4L3,3L4,3L4,2Z" style="fill:rgb(28,25,23);"/>
    <g transform="matrix(0.02,0,0,0.0204487,-44.3197,-8.79709)">
        <path d="M2615.98,1163.75L2615.98,1213.75L2665.98,1213.75L2665.98,1263.75L2765.98,1263.75L2765.98,1310.46L2865.98,1310.46L2865.98,1359.36L2815.98,1359.36L2815.98,1409.36L2765.98,1409.36L2765.98,1459.36L2815.98,1459.36L2815.98,1554.97L2865.98,1554.97L2865.98,1506.07L2915.98,1506.07L2915.98,1554.97L2965.98,1554.97L2965.98,1652.78L3065.98,1652.78L3065.98,1554.97L3115.98,1554.97L3115.98,1506.07L3165.98,1506.07L3165.98,1554.97L3215.98,1554.97L3215.98,1459.36L3265.98,1459.36L3265.98,1409.36L3215.98,1409.36L3215.98,1359.36L3165.98,1359.36L3165.98,1310.46L3265.98,1310.46L3265.98,1263.75L3365.98,1263.75L3365.98,1213.75L3415.98,1213.75L3415.98,1163.75L3465.98,1163.75L3465.98,1114.84L3415.98,1114.84L3415.98,1068.13L3465.98,1068.13L3465.98,821.426L3415.98,821.426L3415.98,871.426L3365.98,871.426L3365.98,968.135L3315.98,968.135L3315.98,1018.13L3265.98,1018.13L3265.98,1068.13L3165.98,1068.13L3165.98,1114.84L3115.98,1114.84L3115.98,968.135L3165.98,968.135L3165.98,921.426L3115.98,921.426L3115.98,871.426L2865.98,871.426L2865.98,921.426L2915.98,921.426L2915.98,1114.84L2865.98,1114.84L2865.98,1068.13L2765.98,1068.13L2765.98,1018.13L2715.98,1018.13L2715.98,968.135L2665.98,968.135L2665.98,871.426L2615.98,871.426L2615.98,821.426L2565.98,821.426L2565.98,1068.13L2615.98,1068.13L2615.98,1114.84L2565.98,1114.84L2565.98,1163.75L2615.98,1163.75Z" style="fill:white;"/>
    </g>
</svg>
